# xmcd CD database file
#
# Track frame offsets:
#	150
#	24606
#	37968
#	56924
#	80317
#	91037
#	116526
#	133063
#	145070
#	167326
#	177705
#	198308
#	207683
#	246278
#	265050
#	293888
#	325688
#	339525
#
# Disc length: 4789 seconds
#
# Revision: 0
# Processed by: cddbd v1.5.2PL0 Copyright (c) Steve Scherf et al.
# Submitted via: CDex 1.79
#
DISCID=0712b312
DTITLE=Blue Suit 11th Anniversary Collection - Blue Suit 11th Anniversary Collection
DYEAR=1900
DGENRE=Blues
TTITLE0=Dixie Boogie_Eddie Burns
TTITLE1=Chicken Shack Boogie_Detroit Junior
TTITLE2=Lady Be Good_Howard Armstrong
TTITLE3=Cadillac Assembly Line_Sir Mack Rice
TTITLE4=He's A Mighty Good God To Know_The Queens Of Harmony
TTITLE5=Killing Floor_Willie B Warren
TTITLE6=Take Out The Time_Detroit Junior
TTITLE7=Who May Be Your Regular_Honeyboy Edwards
TTITLE8=Orange Driver_Eddie Burns
TTITLE9=Little Dog_Big Jack Reynolds
TTITLE10=If Trouble was Money_Mr Bo
TTITLE11=Break Up_Ellis Kirk
TTITLE12=How Blue Can You Get?_Detroit Junior
TTITLE13=I Love The Woman_Art and Roman Griswold
TTITLE14=Stubborn As A Mule_Harmonica Shah
TTITLE15=Mustang Sally_Sir Mack Rice
TTITLE16=Bonus 1
TTITLE17=Bonus 2
EXTD=
EXTT0=
EXTT1=
EXTT2=
EXTT3=
EXTT4=
EXTT5=
EXTT6=
EXTT7=
EXTT8=
EXTT9=
EXTT10=
EXTT11=
EXTT12=
EXTT13=
EXTT14=
EXTT15=
EXTT16=
EXTT17=
PLAYORDER=
